<svg width="24" height="24" viewBox="0 0 24 24" fill="none" xmlns="http://www.w3.org/2000/svg">
<g id="Group 127">
<path id="Star 12 (Stroke)" d="M10.0562 3.33697C10.4966 1.55435 12.9985 1.55434 13.439 3.33697L14.2173 6.48931C14.2598 6.66084 14.4255 6.72088 14.5464 6.66509L17.4419 5.32232C18.2729 4.93699 19.0923 5.26448 19.5357 5.83306C19.9769 6.39902 20.0984 7.26615 19.5601 7.99029L17.6362 10.5782C17.5317 10.7188 17.5856 10.9151 17.7202 10.9854L20.5513 12.4629C22.1242 13.2839 21.6356 15.7544 19.7935 15.7979L16.6157 15.8731C16.4827 15.8763 16.3471 16.0116 16.3833 16.1944L17.0191 19.3799C17.3647 21.1124 15.1665 22.3235 13.9673 20.8565L11.9292 18.3614C11.8323 18.243 11.6628 18.243 11.5659 18.3614L9.52784 20.8565C8.32869 22.3235 6.13043 21.1124 6.47608 19.3799L7.11183 16.1944C7.14808 16.0116 7.01244 15.8763 6.8794 15.8731L3.70167 15.7979C1.85955 15.7544 1.37094 13.2839 2.94386 12.4629L5.77491 10.9854C5.90952 10.9151 5.96343 10.7188 5.8589 10.5782L3.93507 7.99029C3.39671 7.26615 3.51819 6.39902 3.95948 5.83306C4.40284 5.26448 5.22228 4.93699 6.05323 5.32232L8.94874 6.66509C9.06965 6.72088 9.23532 6.66084 9.27784 6.48931L10.0562 3.33697ZM11.9819 3.69634C11.9168 3.43471 11.5783 3.43471 11.5132 3.69634L10.7339 6.84869C10.4731 7.90412 9.32422 8.49185 8.31788 8.02544L5.42237 6.68267C5.34986 6.64905 5.30276 6.65412 5.27101 6.66314C5.23135 6.67447 5.18376 6.70374 5.14308 6.75591C5.10239 6.8081 5.08105 6.86771 5.07862 6.92095C5.07658 6.96708 5.08714 7.0248 5.13917 7.09478L7.063 9.68267C7.70763 10.5497 7.43702 11.8092 6.46925 12.3145L3.63722 13.793C3.5658 13.8304 3.53396 13.8746 3.5171 13.9151C3.49748 13.9626 3.49024 14.0265 3.50538 14.0948C3.52065 14.1632 3.55403 14.2152 3.58839 14.2461C3.61679 14.2716 3.65934 14.2961 3.73683 14.2979L6.91456 14.3731C8.01899 14.3992 8.79352 15.4309 8.58253 16.4883L7.94679 19.6739C7.92886 19.7639 7.94612 19.8211 7.96632 19.8594C7.98975 19.9038 8.03084 19.9458 8.08546 19.9727C8.13995 19.9995 8.19234 20.0044 8.23194 19.9971C8.26403 19.9912 8.31126 19.9738 8.36573 19.9073L10.4048 17.4122C11.1019 16.5596 12.3933 16.5596 13.0903 17.4122L15.1294 19.9073C15.1839 19.9738 15.2311 19.9912 15.2632 19.9971C15.3028 20.0044 15.3552 19.9995 15.4097 19.9727C15.4643 19.9458 15.5054 19.9038 15.5288 19.8594C15.549 19.8211 15.5663 19.7639 15.5484 19.6739L14.9126 16.4883C14.7016 15.4309 15.4762 14.3992 16.5806 14.3731L19.7583 14.2979C19.8358 14.2961 19.8784 14.2716 19.9067 14.2461C19.9411 14.2152 19.9745 14.1632 19.9898 14.0948C20.0049 14.0266 19.9977 13.9626 19.978 13.9151C19.9612 13.8746 19.9293 13.8304 19.8579 13.793L17.0259 12.3145C16.0581 11.8092 15.7875 10.5497 16.4321 9.68267L18.356 7.09478C18.408 7.0248 18.4186 6.96708 18.4165 6.92095C18.4141 6.86771 18.3927 6.8081 18.3521 6.75591C18.3114 6.70374 18.2638 6.67447 18.2241 6.66314C18.1924 6.65412 18.1453 6.64905 18.0728 6.68267L15.1773 8.02544C14.1709 8.49185 13.022 7.90412 12.7612 6.84869L11.9819 3.69634Z" fill="#171617" />
<g id="Group 125">
<ellipse id="Ellipse 7" cx="10.3476" cy="11.5" rx="0.6" ry="0.75" fill="#171617" />
</g>
<g id="Group 126">
<ellipse id="Ellipse 7_2" cx="13.3476" cy="11.5" rx="0.6" ry="0.75" fill="#171617" />
</g>
</g>

</svg>